<?xml version="1.0" standalone="no"?>
<!DOCTYPE svg PUBLIC "-//W3C//DTD SVG 20010904//EN"
 "http://www.w3.org/TR/2001/REC-SVG-20010904/DTD/svg10.dtd">
<svg version="1.0" xmlns="http://www.w3.org/2000/svg"
 width="636.000000pt" height="900.000000pt" viewBox="0 0 636.000000 900.000000"
 preserveAspectRatio="xMidYMid meet">

<g transform="translate(0.000000,900.000000) scale(0.100000,-0.100000)"
fill="#000000" stroke="none">
<path d="M1100 6346 l0 -163 86 -104 c47 -57 92 -110 100 -118 11 -12 31 0
136 85 68 55 134 108 148 117 24 15 458 177 476 177 5 0 44 -18 86 -40 54 -29
94 -59 134 -103 91 -100 90 -97 69 -173 -16 -60 -16 -82 1 -140 5 -18 -3 -28
-43 -55 -26 -18 -103 -72 -169 -121 l-122 -88 -133 34 -134 34 -40 -33 c-97
-78 -100 -84 -114 -173 -7 -46 -11 -86 -8 -88 2 -2 22 3 44 12 39 16 42 15
192 -30 175 -53 175 -53 220 -100 40 -42 44 -42 196 -20 l110 15 185 -87 c102
-47 196 -87 210 -87 14 -1 58 0 99 1 l74 2 114 113 c63 61 123 124 134 139 11
14 53 125 94 245 42 120 81 223 88 230 13 13 415 186 432 186 6 0 127 -62 271
-137 l260 -138 47 -194 47 -194 -69 -205 c-38 -112 -72 -209 -76 -215 -3 -5
-15 -10 -26 -10 -17 0 -19 -7 -19 -77 0 -43 -3 -108 -6 -144 l-7 -67 -62 -7
c-49 -5 -64 -10 -68 -25 -3 -10 -15 -20 -28 -22 -15 -2 -30 -15 -39 -35 -11
-23 -24 -33 -47 -38 -30 -5 -63 -36 -63 -59 0 -5 44 -6 108 -2 l107 7 80 -39
c44 -21 108 -51 141 -66 61 -27 63 -29 97 -106 l35 -77 80 -5 79 -5 168 -102
168 -102 24 28 c47 57 66 97 89 186 34 134 37 127 -51 127 l-76 0 -54 116
c-42 88 -59 115 -70 110 -10 -4 -29 14 -60 56 -48 66 -59 112 -53 222 l3 59
42 14 c27 9 75 44 135 99 88 80 95 84 130 79 20 -3 42 -7 50 -10 8 -3 32 25
66 78 l52 83 -2 655 -3 654 -2032 3 -2033 2 0 -164z"/>
<path d="M1812 6172 l-202 -77 -318 -257 -319 -258 -106 -261 c-59 -144 -107
-269 -106 -278 0 -9 24 -97 52 -195 l52 -180 110 -27 c60 -15 119 -32 130 -37
12 -6 89 -65 171 -133 l149 -123 105 -23 c58 -13 115 -26 128 -28 22 -5 22 -8
22 -145 l0 -139 93 -143 c52 -79 106 -162 121 -186 l27 -43 -7 -187 c-6 -184
-5 -192 40 -529 25 -187 46 -353 46 -367 0 -37 34 -47 143 -45 l90 2 -6 101
c-3 72 -13 129 -35 201 -17 55 -29 101 -28 102 2 2 24 -44 51 -101 39 -88 49
-121 59 -203 l11 -98 60 0 60 0 1 55 c1 37 8 68 23 95 l22 40 -6 -58 c-3 -31
-2 -75 1 -97 l7 -40 177 0 c98 0 185 3 194 6 10 4 16 18 16 39 0 18 3 48 7 66
7 31 8 28 18 -36 l10 -70 151 -3 c150 -2 152 -2 158 20 3 13 6 33 6 45 0 13
19 38 48 63 73 65 91 68 39 8 -40 -47 -47 -62 -47 -97 l0 -42 97 3 97 3 48
150 c86 272 117 389 124 467 l6 78 69 20 69 21 104 134 103 134 153 -118 154
-118 150 -12 149 -11 66 -46 c36 -25 103 -72 148 -103 l82 -58 167 33 c148 29
171 36 194 61 15 15 84 90 154 165 l126 138 0 491 c0 605 4 580 -132 801 -79
130 -95 149 -124 157 -19 5 -81 22 -138 37 l-105 27 -84 -76 c-46 -42 -96 -81
-111 -87 -28 -10 -28 -11 -22 -73 8 -74 33 -113 68 -109 22 2 30 -10 82 -122
l58 -123 46 5 c26 2 55 11 65 20 14 13 23 13 57 3 22 -6 40 -14 40 -18 0 -14
-72 -320 -80 -339 -4 -11 -50 -77 -101 -145 l-93 -124 -16 52 c-8 29 -22 59
-30 67 -8 8 -75 50 -148 94 l-132 80 -99 7 -99 7 -33 77 c-18 42 -39 83 -48
92 -9 9 -65 39 -126 66 l-110 49 -144 -9 -144 -10 -118 59 c-75 37 -119 64
-119 74 0 22 20 90 26 90 3 0 34 -25 69 -55 56 -49 67 -55 107 -55 43 0 46 2
64 41 27 60 52 89 79 89 16 0 25 7 29 24 3 13 14 26 25 29 13 3 21 17 26 46 8
47 5 45 65 27 61 -18 70 -13 70 42 0 26 3 91 7 145 l6 97 31 0 31 0 59 176 60
175 -40 167 -39 166 -224 118 c-123 65 -231 118 -240 118 -25 0 -364 -147
-372 -162 -3 -7 -39 -108 -78 -223 l-72 -210 -147 -152 -147 -151 -119 -7
-119 -7 -190 88 -190 88 -145 -18 -145 -18 -46 51 c-45 49 -50 52 -178 91 -73
22 -139 40 -149 40 -9 0 -52 -16 -97 -35 -44 -19 -86 -35 -92 -35 -8 0 -5 46
12 158 13 86 26 166 28 177 4 17 239 225 263 232 15 5 52 -33 55 -57 4 -22 12
-27 77 -42 41 -9 78 -14 84 -11 6 4 64 44 129 90 123 88 126 93 106 153 -10
27 -9 34 4 42 9 5 19 24 23 43 5 31 1 40 -42 89 -49 56 -145 117 -180 115 -11
-1 -110 -35 -222 -77z m-426 -1099 l-14 -40 54 -81 c39 -59 62 -84 82 -89 259
-65 283 -76 84 -39 l-123 23 -60 59 -59 58 -95 -47 c-52 -26 -95 -45 -95 -43
0 2 38 32 85 67 68 50 90 74 115 121 36 67 47 71 26 11z m1857 -110 c-24 -75
-25 -85 -20 -273 l5 -195 -28 189 -28 190 20 40 c26 52 69 126 73 126 2 0 -8
-35 -22 -77z m-1109 -345 c44 -65 83 -118 87 -118 4 0 26 21 49 48 56 62 43
40 -51 -90 -43 -59 -82 -115 -87 -125 -6 -12 -3 -66 9 -158 10 -77 18 -145 19
-152 0 -17 229 -293 243 -293 7 -1 146 -18 310 -39 l298 -37 57 105 c31 58 71
149 89 201 36 109 38 108 19 -15 -9 -59 -30 -127 -59 -197 -32 -77 -41 -110
-33 -117 6 -5 93 -54 193 -110 l182 -101 87 15 c48 9 88 14 91 12 5 -5 -164
-67 -183 -67 -7 0 -98 48 -201 106 l-188 106 -345 44 c-190 24 -351 44 -358
44 -14 0 -208 258 -233 310 -11 22 -21 87 -29 175 -15 178 -14 177 -46 165
-14 -6 -67 -10 -118 -10 l-93 0 -7 -140 -7 -141 56 -106 c31 -58 54 -107 52
-109 -1 -2 -35 43 -75 99 l-72 102 0 147 0 146 -27 10 c-26 8 -23 9 27 15 30
4 93 9 140 13 71 6 98 13 163 45 42 22 77 43 77 49 0 5 -34 73 -75 151 l-75
141 6 87 c8 126 18 131 24 11 l5 -105 79 -117z m691 138 c31 -41 110 -127 177
-190 66 -64 117 -116 114 -116 -13 0 -256 201 -270 223 -27 45 -85 157 -81
157 2 0 29 -34 60 -74z m744 -427 l96 -1 -50 -13 c-69 -18 -118 -17 -200 6
l-70 18 64 -4 c35 -3 107 -6 160 -6z m654 -361 c-13 -6 -23 -14 -23 -18 0 -4
91 -60 203 -124 137 -78 212 -116 232 -116 17 1 59 7 95 15 102 22 111 17 33
-20 -148 -69 -108 -78 -374 85 l-233 144 -83 -45 -84 -44 -65 -112 c-36 -62
-67 -113 -69 -113 -4 0 83 252 89 257 2 2 65 25 142 53 132 47 185 61 137 38z
m1106 -419 l1 -116 -74 -71 c-41 -40 -76 -72 -79 -72 -3 0 17 39 45 87 l51 86
21 171 c21 170 21 171 27 101 4 -38 7 -122 8 -186z m-1009 167 c0 -2 -41 -11
-90 -21 -67 -13 -107 -28 -155 -56 -35 -22 -67 -39 -72 -39 -4 0 19 27 52 60
l59 60 103 0 c57 0 103 -2 103 -4z m-2047 -253 l49 -34 170 36 c158 35 174 36
232 25 92 -17 104 -31 21 -24 -59 4 -99 -1 -249 -35 l-180 -39 -73 65 c-40 36
-73 68 -73 70 0 6 36 -16 103 -64z m2548 -157 c5 -54 8 -100 6 -103 -3 -2 -15
37 -27 87 -15 60 -35 110 -59 148 -58 89 -57 91 8 26 l62 -60 10 -98z m-1905
-35 c-19 -56 -36 -104 -39 -107 -2 -3 -72 3 -153 12 l-149 18 -50 48 -50 49
60 -34 c57 -33 66 -35 192 -41 l133 -7 42 85 c23 47 43 84 45 83 1 -2 -13 -49
-31 -106z m308 42 c28 -42 39 -50 111 -76 44 -16 103 -32 130 -36 l50 -7 -49
-9 c-39 -6 -63 -3 -116 14 -37 11 -73 21 -82 21 -18 0 -28 -29 -28 -79 l0 -33
-82 6 c-143 12 -154 19 -48 31 l95 10 7 45 c6 41 -3 90 -28 155 -10 28 3 14
40 -42z m-799 -192 c-24 -59 -24 -59 -9 -162 9 -57 16 -105 17 -105 5 -4 317
-54 334 -54 31 0 75 101 81 188 2 40 6 71 8 69 2 -2 8 -37 13 -78 9 -72 9 -76
-26 -157 -27 -63 -39 -81 -52 -78 -9 3 -98 19 -198 37 -140 25 -184 36 -187
48 -16 55 -46 244 -40 254 10 17 76 97 80 97 1 0 -8 -27 -21 -59z m844 -119
l20 -38 -31 -106 -31 -106 -36 -6 c-20 -3 -72 -9 -116 -12 -71 -6 -86 -4 -123
15 -23 12 -42 23 -42 25 0 1 21 -1 48 -5 26 -4 91 -3 144 3 l97 11 27 79 c19
59 25 93 22 129 -3 27 -4 49 -2 49 2 0 12 -17 23 -38z"/>
<path d="M932 6158 c-5 -7 -17 -28 -26 -46 -19 -38 -29 -32 107 -66 94 -23
117 -21 79 6 -11 7 -45 37 -77 66 -63 56 -67 58 -83 40z"/>
<path d="M1006 5864 c-10 -58 -16 -108 -13 -110 7 -7 195 101 220 125 17 17
13 19 -80 54 -54 21 -100 37 -103 37 -3 0 -14 -48 -24 -106z"/>
<path d="M562 5704 l3 -49 51 -3 c58 -3 80 13 70 52 -7 27 -15 32 -80 41 l-47
7 3 -48z"/>
<path d="M721 5473 c1 -16 4 -39 8 -53 7 -25 8 -24 36 18 31 47 26 62 -22 62
-19 0 -23 -5 -22 -27z"/>
<path d="M527 5338 c-14 -24 -43 -79 -66 -123 l-40 -80 77 -21 c42 -11 89 -24
105 -27 l27 -7 0 119 0 119 -35 31 c-20 17 -38 31 -40 31 -2 0 -15 -19 -28
-42z"/>
<path d="M5242 5125 c-43 -69 -58 -101 -50 -106 24 -11 109 -32 114 -27 2 3 3
57 2 119 l-3 114 -63 -100z"/>
<path d="M5576 5117 c-42 -36 -41 -40 12 -52 29 -6 32 -4 32 17 0 13 3 33 6
46 9 30 -4 28 -50 -11z"/>
<path d="M5612 4642 c-20 -6 -14 -16 77 -106 55 -55 102 -98 104 -95 2 2 -5
50 -16 107 l-19 102 -61 -1 c-34 -1 -72 -4 -85 -7z"/>
<path d="M834 4486 c12 -36 24 -68 28 -71 3 -4 52 15 108 41 66 31 96 50 88
55 -26 15 -150 39 -197 39 l-47 0 20 -64z"/>
<path d="M525 4530 l-40 -5 -3 -57 -3 -57 47 -20 c26 -12 48 -21 50 -21 8 0 4
159 -3 162 -5 2 -26 1 -48 -2z"/>
<path d="M1060 4394 l-75 -35 29 -25 29 -26 39 44 c35 39 63 79 56 78 -2 -1
-37 -17 -78 -36z"/>
<path d="M1185 4335 l-80 -33 -3 -891 -2 -891 410 0 c349 0 410 2 410 14 0 8
-22 183 -50 389 l-50 374 10 158 10 157 -29 47 c-15 25 -72 113 -125 195 l-96
148 0 112 0 112 -67 13 c-105 20 -134 31 -183 70 -25 20 -52 41 -60 47 -11 8
-35 3 -95 -21z"/>
<path d="M5640 4245 c0 -45 0 -45 35 -45 32 0 35 2 35 29 0 20 -8 35 -22 45
-38 27 -48 20 -48 -29z"/>
<path d="M694 4094 c-33 -25 -60 -49 -62 -54 -2 -4 18 -22 43 -40 l46 -31 19
23 c14 17 19 39 20 86 0 34 -2 62 -4 62 -2 0 -30 -20 -62 -46z"/>
<path d="M5777 3857 l-57 -102 82 -3 c75 -3 85 -1 101 19 9 12 17 28 17 36 0
17 -71 153 -80 153 -3 0 -31 -46 -63 -103z"/>
<path d="M5543 3724 c-2 -7 -1 -32 4 -56 l9 -43 27 46 c15 25 27 48 27 51 0
12 -62 14 -67 2z"/>
<path d="M3872 3290 c-79 -104 -86 -110 -136 -125 -58 -17 -66 -31 -66 -109 0
-29 -32 -140 -128 -443 l-30 -93 829 0 829 0 0 189 0 190 -77 46 c-84 51 -87
51 -228 29 -38 -6 -46 -2 -189 100 -82 58 -156 106 -165 106 -10 0 -77 5 -151
11 l-134 10 -122 95 c-68 52 -129 96 -136 99 -8 2 -48 -41 -96 -105z"/>
<path d="M5643 3275 c-29 -13 -53 -27 -53 -32 0 -8 61 -53 73 -53 7 0 28 45
41 88 9 27 4 27 -61 -3z"/>
<path d="M5361 3176 c-14 -14 -23 -28 -20 -30 14 -13 68 -34 73 -29 11 12 6
41 -12 63 l-17 21 -24 -25z"/>
<path d="M5228 3026 c-48 -11 -89 -23 -92 -26 -3 -3 32 -28 77 -55 45 -26 92
-55 105 -63 l22 -14 0 91 c0 67 -3 91 -12 90 -7 -1 -52 -11 -100 -23z"/>
</g>
</svg>
